REM DIRINDEX 1\3,1\2\4,1\2\5,1\2\6
REM DIRNAME cjc137,folder01,folder02,folder03,folder04,folder05
TITLE ""
FILE "132.mp3" MP3
  TRACK 01 AUDIO
    TITLE "4:cjc137_5545"
    INDEX 01 00:00:00
  TRACK 02 AUDIO
    TITLE "0:"
    INDEX 01 00:01:13
  TRACK 03 AUDIO
    TITLE "6:cjc137_5546"
    INDEX 01 00:01:21
  TRACK 04 AUDIO
    TITLE "0:"
    INDEX 01 00:02:49
  TRACK 05 AUDIO
    TITLE "5:cjc137_5547"
    INDEX 01 00:02:57
  TRACK 06 AUDIO
    TITLE "0:"
    INDEX 01 00:03:70
  TRACK 07 AUDIO
    TITLE "4:cjc137_5548"
    INDEX 01 00:05:05
  TRACK 08 AUDIO
    TITLE "0:"
    INDEX 01 00:06:55
  TRACK 09 AUDIO
    TITLE "6:cjc137_5549"
    INDEX 01 00:06:61
  TRACK 10 AUDIO
    TITLE "0:"
    INDEX 01 00:07:52
  TRACK 11 AUDIO
    TITLE "5:cjc137_5550"
    INDEX 01 00:07:56
  TRACK 12 AUDIO
    TITLE "0:"
    INDEX 01 00:09:34
  TRACK 13 AUDIO
    TITLE "4:cjc137_5551"
    INDEX 01 00:10:41
  TRACK 14 AUDIO
    TITLE "0:"
    INDEX 01 00:11:64
  TRACK 15 AUDIO
    TITLE "6:cjc137_5552"
    INDEX 01 00:11:68
  TRACK 16 AUDIO
    TITLE "0:"
    INDEX 01 00:13:16
  TRACK 17 AUDIO
    TITLE "5:cjc137_5553"
    INDEX 01 00:13:26
  TRACK 18 AUDIO
    TITLE "0:"
    INDEX 01 00:14:49
  TRACK 19 AUDIO
    TITLE "4:cjc137_5554"
    INDEX 01 00:15:56
  TRACK 20 AUDIO
    TITLE "0:"
    INDEX 01 00:17:10
  TRACK 21 AUDIO
    TITLE "6:cjc137_5555"
    INDEX 01 00:17:16
  TRACK 22 AUDIO
    TITLE "0:"
    INDEX 01 00:18:56
  TRACK 23 AUDIO
    TITLE "5:cjc137_5556"
    INDEX 01 00:18:62
  TRACK 24 AUDIO
    TITLE "0:"
    INDEX 01 00:20:16
  TRACK 25 AUDIO
    TITLE "4:cjc137_5557"
    INDEX 01 00:21:23
  TRACK 26 AUDIO
    TITLE "0:"
    INDEX 01 00:22:25
  TRACK 27 AUDIO
    TITLE "6:cjc137_5558"
    INDEX 01 00:22:30
  TRACK 28 AUDIO
    TITLE "0:"
    INDEX 01 00:23:28
  TRACK 29 AUDIO
    TITLE "5:cjc137_5559"
    INDEX 01 00:23:32
  TRACK 30 AUDIO
    TITLE "0:"
    INDEX 01 00:24:35
  TRACK 31 AUDIO
    TITLE "4:cjc137_5560"
    INDEX 01 00:25:41
  TRACK 32 AUDIO
    TITLE "0:"
    INDEX 01 00:26:73
  TRACK 33 AUDIO
    TITLE "6:cjc137_5561"
    INDEX 01 00:27:08
  TRACK 34 AUDIO
    TITLE "0:"
    INDEX 01 00:28:62
  TRACK 35 AUDIO
    TITLE "5:cjc137_5562"
    INDEX 01 00:28:68
  TRACK 36 AUDIO
    TITLE "0:"
    INDEX 01 00:30:22
  TRACK 37 AUDIO
    TITLE "4:cjc137_5563"
    INDEX 01 00:31:35
  TRACK 38 AUDIO
    TITLE "0:"
    INDEX 01 00:32:37
  TRACK 39 AUDIO
    TITLE "6:cjc137_5564"
    INDEX 01 00:32:45
  TRACK 40 AUDIO
    TITLE "0:"
    INDEX 01 00:33:64
  TRACK 41 AUDIO
    TITLE "5:cjc137_5565"
    INDEX 01 00:33:69
  TRACK 42 AUDIO
    TITLE "0:"
    INDEX 01 00:34:73
  TRACK 43 AUDIO
    TITLE "4:cjc137_5566"
    INDEX 01 00:36:05
  TRACK 44 AUDIO
    TITLE "0:"
    INDEX 01 00:37:07
  TRACK 45 AUDIO
    TITLE "6:cjc137_5567"
    INDEX 01 00:37:12
  TRACK 46 AUDIO
    TITLE "0:"
    INDEX 01 00:38:10
  TRACK 47 AUDIO
    TITLE "5:cjc137_5568"
    INDEX 01 00:38:20
  TRACK 48 AUDIO
    TITLE "0:"
    INDEX 01 00:39:19
  TRACK 49 AUDIO
    TITLE "4:cjc137_5569"
    INDEX 01 00:40:28
  TRACK 50 AUDIO
    TITLE "0:"
    INDEX 01 00:41:55
  TRACK 51 AUDIO
    TITLE "6:cjc137_5570"
    INDEX 01 00:41:63
  TRACK 52 AUDIO
    TITLE "0:"
    INDEX 01 00:43:05
  TRACK 53 AUDIO
    TITLE "5:cjc137_5571"
    INDEX 01 00:43:11
  TRACK 54 AUDIO
    TITLE "0:"
    INDEX 01 00:44:40
  TRACK 55 AUDIO
    TITLE "4:cjc137_5572"
    INDEX 01 00:45:49
  TRACK 56 AUDIO
    TITLE "0:"
    INDEX 01 00:47:01
  TRACK 57 AUDIO
    TITLE "6:cjc137_5573"
    INDEX 01 00:47:09
  TRACK 58 AUDIO
    TITLE "0:"
    INDEX 01 00:48:20
  TRACK 59 AUDIO
    TITLE "5:cjc137_5574"
    INDEX 01 00:48:24
  TRACK 60 AUDIO
    TITLE "0:"
    INDEX 01 00:49:53
  TRACK 61 AUDIO
    TITLE "4:cjc137_5575"
    INDEX 01 00:50:60
  TRACK 62 AUDIO
    TITLE "0:"
    INDEX 01 00:52:04
  TRACK 63 AUDIO
    TITLE "6:cjc137_5576"
    INDEX 01 00:52:16
  TRACK 64 AUDIO
    TITLE "0:"
    INDEX 01 00:53:19
  TRACK 65 AUDIO
    TITLE "5:cjc137_5577"
    INDEX 01 00:53:27
  TRACK 66 AUDIO
    TITLE "0:"
    INDEX 01 00:54:46
  TRACK 67 AUDIO
    TITLE "4:cjc137_5578"
    INDEX 01 00:55:61
  TRACK 68 AUDIO
    TITLE "0:"
    INDEX 01 00:56:72
  TRACK 69 AUDIO
    TITLE "6:cjc137_5579"
    INDEX 01 00:57:05
  TRACK 70 AUDIO
    TITLE "0:"
    INDEX 01 00:58:56
  TRACK 71 AUDIO
    TITLE "5:cjc137_5580"
    INDEX 01 00:58:64
  TRACK 72 AUDIO
    TITLE "0:"
    INDEX 01 00:59:73
  TRACK 73 AUDIO
    TITLE "4:cjc137_5581"
    INDEX 01 01:01:07
  TRACK 74 AUDIO
    TITLE "0:"
    INDEX 01 01:02:34
  TRACK 75 AUDIO
    TITLE "6:cjc137_5582"
    INDEX 01 01:02:42
  TRACK 76 AUDIO
    TITLE "0:"
    INDEX 01 01:03:41
  TRACK 77 AUDIO
    TITLE "5:cjc137_5583"
    INDEX 01 01:03:45
  TRACK 78 AUDIO
    TITLE "0:"
    INDEX 01 01:04:70
  TRACK 79 AUDIO
    TITLE "4:cjc137_5584"
    INDEX 01 01:06:08
  TRACK 80 AUDIO
    TITLE "0:"
    INDEX 01 01:07:14
  TRACK 81 AUDIO
    TITLE "6:cjc137_5585"
    INDEX 01 01:07:23
  TRACK 82 AUDIO
    TITLE "0:"
    INDEX 01 01:08:29
  TRACK 83 AUDIO
    TITLE "5:cjc137_5586"
    INDEX 01 01:08:42
  TRACK 84 AUDIO
    TITLE "0:"
    INDEX 01 01:09:46
  TRACK 85 AUDIO
    TITLE "4:cjc137_5587"
    INDEX 01 01:10:59
  TRACK 86 AUDIO
    TITLE "0:"
    INDEX 01 01:11:68
  TRACK 87 AUDIO
    TITLE "6:cjc137_5588"
    INDEX 01 01:12:05
  TRACK 88 AUDIO
    TITLE "0:"
    INDEX 01 01:13:10
  TRACK 89 AUDIO
    TITLE "5:cjc137_5589"
    INDEX 01 01:13:18
  TRACK 90 AUDIO
    TITLE "0:"
    INDEX 01 01:14:25
  TRACK 91 AUDIO
    TITLE "4:cjc137_5590"
    INDEX 01 01:15:40
  TRACK 92 AUDIO
    TITLE "0:"
    INDEX 01 01:16:46
  TRACK 93 AUDIO
    TITLE "6:cjc137_5591"
    INDEX 01 01:16:52
  TRACK 94 AUDIO
    TITLE "0:"
    INDEX 01 01:17:55
  TRACK 95 AUDIO
    TITLE "5:cjc137_5592"
    INDEX 01 01:17:61
  TRACK 96 AUDIO
    TITLE "0:"
    INDEX 01 01:18:64
  TRACK 97 AUDIO
    TITLE "4:cjc137_5593"
    INDEX 01 01:20:02
  TRACK 98 AUDIO
    TITLE "0:"
    INDEX 01 01:21:21
  TRACK 99 AUDIO
    TITLE "6:cjc137_5594"
    INDEX 01 01:21:27
  TRACK 100 AUDIO
    TITLE "0:"
    INDEX 01 01:22:56
  TRACK 101 AUDIO
    TITLE "5:cjc137_5595"
    INDEX 01 01:22:64
  TRACK 102 AUDIO
    TITLE "0:"
    INDEX 01 01:24:10
  TRACK 103 AUDIO
    TITLE "4:cjc137_5596"
    INDEX 01 01:25:23
  TRACK 104 AUDIO
    TITLE "0:"
    INDEX 01 01:26:40
  TRACK 105 AUDIO
    TITLE "6:cjc137_5597"
    INDEX 01 01:26:46
  TRACK 106 AUDIO
    TITLE "0:"
    INDEX 01 01:27:34
  TRACK 107 AUDIO
    TITLE "5:cjc137_5598"
    INDEX 01 01:27:46
  TRACK 108 AUDIO
    TITLE "0:"
    INDEX 01 01:28:61
  TRACK 109 AUDIO
    TITLE "4:cjc137_5599"
    INDEX 01 01:29:68
  TRACK 110 AUDIO
    TITLE "0:"
    INDEX 01 01:31:04
  TRACK 111 AUDIO
    TITLE "6:cjc137_5600"
    INDEX 01 01:31:08
  TRACK 112 AUDIO
    TITLE "0:"
    INDEX 01 01:32:19
  TRACK 113 AUDIO
    TITLE "5:cjc137_5601"
    INDEX 01 01:32:25
  TRACK 114 AUDIO
    TITLE "0:"
    INDEX 01 01:33:34
  TRACK 115 AUDIO
    TITLE "4:cjc137_5602"
    INDEX 01 01:34:42
  TRACK 116 AUDIO
    TITLE "0:"
    INDEX 01 01:35:41
  TRACK 117 AUDIO
    TITLE "6:cjc137_5603"
    INDEX 01 01:35:49
  TRACK 118 AUDIO
    TITLE "0:"
    INDEX 01 01:36:58
  TRACK 119 AUDIO
    TITLE "5:cjc137_5604"
    INDEX 01 01:36:66
  TRACK 120 AUDIO
    TITLE "0:"
    INDEX 01 01:37:68
